<?xml version="1.0" encoding="UTF-8"?>
<svg width="400px" height="300px" viewBox="0 0 400 300" version="1.1" xmlns="http://www.w3.org/2000/svg" xmlns:xlink="http://www.w3.org/1999/xlink">
    <!-- Generator: Sketch 52 (66869) - http://www.bohemiancoding.com/sketch -->
    <title>pic_body</title>
    <desc>Created with Sketch.</desc>
    <g id="Page-1" stroke="none" stroke-width="1" fill="none" fill-rule="evenodd">
        <g id="左上腹">
            <g id="分组-7" transform="translate(13.000000, 8.000000)" stroke="#373D52" stroke-linecap="round" stroke-linejoin="round" stroke-width="2">
                <path d="M55.8131632,1.42108547e-13 C62.1353444,10.5963696 66.996818,18.5963696 70.397584,24 C75.4987331,32.1054456 73.6690223,37.5749523 73.3429352,40.9188544 C73.0168482,44.2627565 72.2801329,79.7345066 73.3429352,91 C74.4057375,102.265493 79.6533238,132.012268 83.1663081,142 C86.6792924,151.987732 83.8230112,172.379704 76.786475,185 C69.7499389,197.620296 52.0533495,234.470516 46,283.797938" id="路径-4"></path>
                <path d="M296.813163,1.42108547e-13 C303.135344,10.5963696 307.996818,18.5963696 311.397584,24 C316.498733,32.1054456 314.669022,37.5749523 314.342935,40.9188544 C314.016848,44.2627565 313.280133,79.7345066 314.342935,91 C315.405738,102.265493 320.653324,132.012268 324.166308,142 C327.679292,151.987732 324.823011,172.379704 317.786475,185 C310.749939,197.620296 293.05335,234.470516 287,283.797938" id="路径-4-copy" transform="translate(306.334514, 141.898969) scale(-1, 1) translate(-306.334514, -141.898969) "></path>
                <path d="M73.8234486,98 C66.4031911,126.285501 62.0897821,142.069119 60.8832217,145.350856 C59.073381,150.273461 52.7363494,161.634807 51.2864055,165.468096 C49.8364616,169.301385 39.3153062,193.105062 38,222.02497" id="路径-7"></path>
                <path d="M333.823449,98 C326.403191,126.285501 322.089782,142.069119 320.883222,145.350856 C319.073381,150.273461 312.736349,161.634807 311.286406,165.468096 C309.836462,169.301385 299.315306,193.105062 298,222.02497" id="路径-7-copy" transform="translate(315.911724, 160.012485) scale(-1, 1) translate(-315.911724, -160.012485) "></path>
                <path d="M20.3289901,2 C19.4219121,24.3760363 18.4967098,37.3708744 17.5533833,40.9845144 C16.1383934,46.4049743 14.2185123,47.9503097 12.3827798,52 C10.5470472,56.0496903 7.09825211,66.6176577 6.7254094,76.5806369 C6.35256668,86.5436162 4.88061471,119.514363 4.78740403,139 C4.69419335,158.485637 4.14010765,190.220282 0,207" id="路径-8"></path>
                <path d="M373.32899,2 C372.421912,24.3760363 371.49671,37.3708744 370.553383,40.9845144 C369.138393,46.4049743 367.218512,47.9503097 365.38278,52 C363.547047,56.0496903 360.098252,66.6176577 359.725409,76.5806369 C359.352567,86.5436162 357.880615,119.514363 357.787404,139 C357.694193,158.485637 357.140108,190.220282 353,207" id="路径-8-copy" transform="translate(363.164495, 104.500000) scale(-1, 1) translate(-363.164495, -104.500000) "></path>
            </g>
            <g id="分组-6" transform="translate(88.000000, 56.000000)">
                <g id="分组-2">
                    <path d="M51.5142581,0.00930399299 C60.3530878,-0.438189369 96.4895981,15.3787041 102.546649,21.0834765 C108.603699,26.7882488 111.173543,55.1001401 101.51052,65.6710187 C84.9494839,70.9261571 74.7694195,80.2733154 70.970327,93.7124936 L70.9703279,93.7124939 C70.1181659,96.7269919 67.366932,98.8083017 64.2343008,98.8083017 L35.0854803,98.808306 C34.3604649,98.808306 33.6441221,98.6506335 32.9861108,98.3462187 C24.0176266,94.1971426 19.3436876,87.0968907 18.9642936,77.0454627 C18.3734866,61.3929909 9.19122747,42.4919195 14.9463564,29.0515989 C25.7093394,13.5068097 42.6754284,0.456797355 51.5142581,0.00930399299 Z" id="路径-6" fill="#EBF4FF"></path>
                    <path d="M51.2819211,116.725555 C63.5063685,114.635267 95.0436647,130.701866 102.314312,137.799728 C109.584958,144.89759 110.941206,171.816391 101.278183,182.38727 C84.7171469,187.642408 74.5370825,196.989567 70.73799,210.428745 L70.7379909,210.428745 C69.8858289,213.443243 67.134595,215.524553 64.0019638,215.524553 L43.7377602,215.524557 C31.0931973,215.524557 20.3507196,206.275112 18.4725575,193.770813 C18.4725575,193.770813 18.4725575,193.770813 18.4725575,193.770813 C15.3541643,173.009391 -5.89737119,162.666512 1.58652692,143.476585 C12.34951,127.931796 39.0574736,118.815843 51.2819211,116.725555 Z" id="路径-6-copy-2" fill="#EBF4FF" transform="translate(54.073470, 166.032047) scale(1, -1) translate(-54.073470, -166.032047) "></path>
                    <path d="M166.797616,116.725555 C179.022064,114.635267 210.55936,130.701866 217.830007,137.799728 C225.100653,144.89759 226.456901,171.816391 216.793878,182.38727 C200.232842,187.642408 190.052778,196.989567 186.253685,210.428745 L186.253686,210.428745 C185.401524,213.443243 182.65029,215.524553 179.517659,215.524553 L159.253455,215.524557 C146.608892,215.524557 135.866415,206.275112 133.988253,193.770813 C133.988253,193.770813 133.988253,193.770813 133.988253,193.770813 C130.869859,173.009391 109.618324,162.666512 117.102222,143.476585 C127.865205,127.931796 154.573169,118.815843 166.797616,116.725555 Z" id="路径-6-copy-3" fill="#0077FF" transform="translate(169.589165, 166.032047) scale(-1, -1) translate(-169.589165, -166.032047) "></path>
                    <path d="M154.976142,0.00930399299 C163.814971,-0.438189369 199.951481,15.3787041 206.008532,21.0834765 C212.065582,26.7882488 214.635426,55.1001401 204.972404,65.6710187 C188.411367,70.9261571 178.231303,80.2733154 174.43221,93.7124936 L174.432211,93.7124939 C173.580049,96.7269919 170.828815,98.8083017 167.696184,98.8083017 L138.547364,98.808306 C137.822348,98.808306 137.106006,98.6506335 136.447994,98.3462187 C127.47951,94.1971426 122.805571,87.0968907 122.426177,77.0454627 C121.83537,61.3929909 112.653111,42.4919195 118.40824,29.0515989 C129.171223,13.5068097 146.137312,0.456797355 154.976142,0.00930399299 Z" id="路径-6-copy" fill="#EBF4FF" transform="translate(163.959789, 49.404151) scale(-1, 1) translate(-163.959789, -49.404151) "></path>
                </g>
                <path d="M112.502242,140.651163 C130.254606,140.651163 144.64574,126.257638 144.64574,108.502326 C144.64574,90.7470131 130.254606,76.3534884 112.502242,76.3534884 C94.7498785,76.3534884 80.3587444,90.7470131 80.3587444,108.502326 C80.3587444,126.257638 94.7498785,140.651163 112.502242,140.651163 Z" id="椭圆形" fill="#EBF4FF"></path>
            </g>
            <text id="右下腹" font-family="PingFangSC-Regular, PingFang SC" font-size="26" font-weight="normal" fill="#FFFFFF">
                <tspan x="214" y="234">右下腹</tspan>
            </text>
        </g>
    </g>
</svg>